/* XPM */
static char * sl_girl_xpm[] = {
"32 32 349 2",
"  	c #8CEF88",
". 	c #85E381",
"+ 	c #73C46F",
"@ 	c #67B063",
"# 	c #67B064",
"$ 	c #6DBB6A",
"% 	c #7BD077",
"& 	c #8BEE87",
"* 	c #75C570",
"= 	c #4A7143",
"- 	c #2E1F23",
"; 	c #1F1416",
"> 	c #191011",
", 	c #180F10",
"' 	c #1A1112",
") 	c #2E1F22",
"! 	c #312725",
"~ 	c #5D9657",
"{ 	c #7DD479",
"] 	c #88E884",
"^ 	c #4D7E48",
"/ 	c #2F1F23",
"( 	c #2E1E22",
"_ 	c #201517",
": 	c #170F0F",
"< 	c #1B1112",
"[ 	c #2D1E22",
"} 	c #2F2023",
"| 	c #548E50",
"1 	c #426D3D",
"2 	c #201516",
"3 	c #302024",
"4 	c #3A6036",
"5 	c #87E783",
"6 	c #8CEE88",
"7 	c #4C8048",
"8 	c #211618",
"9 	c #170E0F",
"0 	c #302023",
"a 	c #181010",
"b 	c #447140",
"c 	c #89EA85",
"d 	c #6BB767",
"e 	c #1A1011",
"f 	c #221619",
"g 	c #2D1E21",
"h 	c #2A1C1F",
"i 	c #65AD62",
"j 	c #2E4729",
"k 	c #201416",
"l 	c #AB876C",
"m 	c #7F6451",
"n 	c #221618",
"o 	c #2F1F22",
"p 	c #2B1C1F",
"q 	c #87E683",
"r 	c #6FBE6C",
"s 	c #CCA07C",
"t 	c #FFCA9E",
"u 	c #F8C49A",
"v 	c #654E42",
"w 	c #231719",
"x 	c #2A1E1A",
"y 	c #2A1B1E",
"z 	c #64AA60",
"A 	c #487944",
"B 	c #170F10",
"C 	c #B58E6E",
"D 	c #EAB991",
"E 	c #4F3D32",
"F 	c #191010",
"G 	c #160E0F",
"H 	c #7E644E",
"I 	c #E9B991",
"J 	c #503C34",
"K 	c #3F6239",
"L 	c #000000",
"M 	c #634E3E",
"N 	c #FDC99E",
"O 	c #FFCCA1",
"P 	c #FFCBA0",
"Q 	c #FFC99D",
"R 	c #755B46",
"S 	c #C39774",
"T 	c #FFC99C",
"U 	c #E9B78E",
"V 	c #564138",
"W 	c #27191C",
"X 	c #82DD7E",
"Y 	c #C59D7B",
"Z 	c #FFCDA2",
"` 	c #FFCB9F",
" .	c #FFCA9F",
"..	c #F5C297",
"+.	c #F4C094",
"@.	c #FEC99D",
"#.	c #DAAD88",
"$.	c #F3C197",
"%.	c #EDBB91",
"&.	c #725644",
"*.	c #2A1C1E",
"=.	c #24171A",
"-.	c #76C671",
";.	c #EEC099",
">.	c #FFCCA0",
",.	c #C0926C",
"'.	c #CEA079",
").	c #C89A73",
"!.	c #F1BD92",
"~.	c #C99B74",
"{.	c #CD9F77",
"].	c #AF8662",
"^.	c #2A1F1B",
"/.	c #25181B",
"(.	c #6BB266",
"_.	c #F0BD95",
":.	c #A68367",
"<.	c #261B18",
"[.	c #26191C",
"}.	c #67AB62",
"|.	c #8A6C55",
"1.	c #FFC99E",
"2.	c #FFC99F",
"3.	c #FFCAA0",
"4.	c #FFCBA1",
"5.	c #FFCA9D",
"6.	c #FFC89C",
"7.	c #FFC89E",
"8.	c #F1BE96",
"9.	c #664E3E",
"0.	c #609C5A",
"a.	c #B1896D",
"b.	c #FFC89F",
"c.	c #FFC69D",
"d.	c #FFC79F",
"e.	c #F3BD98",
"f.	c #FFC69B",
"g.	c #FFC49B",
"h.	c #FFC59D",
"i.	c #FFC7A0",
"j.	c #FFC69C",
"k.	c #96745D",
"l.	c #281A1D",
"m.	c #5F9B59",
"n.	c #BC8C6F",
"o.	c #FFC19A",
"p.	c #FFC19B",
"q.	c #FFC49D",
"r.	c #040301",
"s.	c #FCC099",
"t.	c #FFC09A",
"u.	c #FFBF9A",
"v.	c #FFBF99",
"w.	c #8E6A54",
"x.	c #281B1E",
"y.	c #66AA62",
"z.	c #7FB66C",
"A.	c #9C745E",
"B.	c #D19A7C",
"C.	c #FFBA97",
"D.	c #FFB996",
"E.	c #FFBB97",
"F.	c #FFBD99",
"G.	c #ECBB94",
"H.	c #FEC59B",
"I.	c #F6B491",
"J.	c #FFB795",
"K.	c #FFB896",
"L.	c #FFBA98",
"M.	c #B2846B",
"N.	c #A37961",
"O.	c #81B56C",
"P.	c #F1C996",
"Q.	c #FFBB96",
"R.	c #FFB393",
"S.	c #FFB394",
"T.	c #FFB494",
"U.	c #FBC399",
"V.	c #FFB392",
"W.	c #FFB192",
"X.	c #FFB091",
"Y.	c #FFB895",
"Z.	c #FFBE98",
"`.	c #F0CC98",
" +	c #A5E98B",
".+	c #FFB794",
"++	c #FFB293",
"@+	c #FFB092",
"#+	c #FFAD90",
"$+	c #FFAE90",
"%+	c #FFB894",
"&+	c #FFC79E",
"*+	c #FFCBA2",
"=+	c #FFCAA1",
"-+	c #F9C199",
";+	c #FFBD98",
">+	c #FEB797",
",+	c #FFB294",
"'+	c #FFAE91",
")+	c #FFAF91",
"!+	c #FFB595",
"~+	c #FFBC98",
"{+	c #FFC49C",
"]+	c #A0EA8A",
"^+	c #8FEE88",
"/+	c #FBC198",
"(+	c #FFB694",
"_+	c #FFB193",
":+	c #FFAF92",
"<+	c #FFAD91",
"[+	c #FFB292",
"}+	c #FFB793",
"|+	c #FFC099",
"1+	c #FFC59C",
"2+	c #FAC39A",
"3+	c #FFC199",
"4+	c #FFB594",
"5+	c #FFAC90",
"6+	c #FFBD9A",
"7+	c #FBC59B",
"8+	c #8FEE89",
"9+	c #B5E38D",
"0+	c #E7AD89",
"a+	c #FAAE90",
"b+	c #FFC29C",
"c+	c #FCC49C",
"d+	c #FCC49B",
"e+	c #FFC198",
"f+	c #FFBC97",
"g+	c #FDB696",
"h+	c #E0A787",
"i+	c #B6E38E",
"j+	c #5D9858",
"k+	c #1C1213",
"l+	c #F4AA8D",
"m+	c #FFB495",
"n+	c #FFB695",
"o+	c #FFBC99",
"p+	c #FFC29B",
"q+	c #FFC29D",
"r+	c #FFBE97",
"s+	c #FFB090",
"t+	c #F6AE8F",
"u+	c #241716",
"v+	c #2F2F26",
"w+	c #74C36F",
"x+	c #CE9478",
"y+	c #FFB693",
"z+	c #FFBB98",
"A+	c #FFC29E",
"B+	c #FFC09C",
"C+	c #FF778B",
"D+	c #FF6B89",
"E+	c #FF6D89",
"F+	c #FF7B8C",
"G+	c #FFB593",
"H+	c #FFB997",
"I+	c #CE987C",
"J+	c #4E7C48",
"K+	c #263721",
"L+	c #5B4134",
"M+	c #F8B590",
"N+	c #FFBE99",
"O+	c #F87186",
"P+	c #FF6A89",
"Q+	c #FE6B89",
"R+	c #FFC39B",
"S+	c #F7B792",
"T+	c #5B4336",
"U+	c #599254",
"V+	c #66AE62",
"W+	c #81624E",
"X+	c #FDC49D",
"Y+	c #FFC8A1",
"Z+	c #FFC9A1",
"`+	c #FFC89D",
" @	c #FFC79B",
".@	c #FE728A",
"+@	c #FD798A",
"@@	c #FFC79C",
"#@	c #F9C29A",
"$@	c #836450",
"%@	c #66AB62",
"&@	c #365731",
"*@	c #785D4B",
"=@	c #E6B690",
"-@	c #FFC89B",
";@	c #E2B08A",
">@	c #795D49",
",@	c #6AB165",
"'@	c #80DA7C",
")@	c #2D4728",
"!@	c #A66D5D",
"~@	c #F5AA95",
"{@	c #FFDFC8",
"]@	c #FFDABE",
"^@	c #FFD8BC",
"/@	c #FFE1CB",
"(@	c #F6AC93",
"_@	c #A46B5C",
":@	c #211517",
"<@	c #32512E",
"[@	c #70BB6B",
"}@	c #83E07F",
"|@	c #477743",
"1@	c #4B2425",
"2@	c #E57071",
"3@	c #EB7475",
"4@	c #F8DADA",
"5@	c #FFFFFF",
"6@	c #E5E8EA",
"7@	c #E3E6E9",
"8@	c #FDFDFE",
"9@	c #F9DFDF",
"0@	c #EC7677",
"a@	c #53292A",
"b@	c #62A85F",
"c@	c #7BD277",
"d@	c #80D97C",
"e@	c #CCA378",
"f@	c #EC7576",
"g@	c #ED8485",
"h@	c #E2D6D8",
"i@	c #F8F9F9",
"j@	c #F9FAFA",
"k@	c #E5D9DC",
"l@	c #EE8586",
"m@	c #C5886D",
"n@	c #84E180",
"o@	c #93EA87",
"p@	c #E97B76",
"q@	c #EC7475",
"r@	c #ED7879",
"s@	c #ED797A",
"t@	c #EF8E8F",
"u@	c #FCEFEF",
"v@	c #FDF6F6",
"w@	c #EF9899",
"x@	c #EC7778",
"y@	c #E87F77",
"z@	c #91EC87",
"A@	c #B2D283",
"B@	c #EC7E7F",
"C@	c #ED8384",
"D@	c #EB7374",
"E@	c #B1D383",
"F@	c #CBB780",
"G@	c #EC7879",
"H@	c #C9B97F",
"                        . + @ # # $ % &                         ",
"                    * = - ; > , , ' ) ! ~ {                     ",
"                ] ^ / ) ( _ : > > < / [ / } | ]                 ",
"              ] 1 2 - / 3 2 , , > > ) / 3 3 ' 4 5               ",
"            6 7 > 8 / } ) _ , 9 > > ) ) ) 0 > a b c             ",
"            d > e _ 3 } 0 f > a , > - ( g h , , ' i             ",
"          c j > , k l m / n , > > > o / / p > > > , q           ",
"          r > , , s t u v w > > > x / / g y , : > > z           ",
"          A B , C t t t D E F G H I J ) - p > , , > K           ",
"        L L > M N O P Q t D R , S T U V [ h , , 9 > W X         ",
"        L L L Y Z `  ...+.T @.#.$.P ` %.&.*.> , : B =.-.        ",
"        L L L ;.>.>.,.'.).!.>.>.t t $.~.{.].^., , > /.(.        ",
"        L L L ` t ` >.>.` P Q P P P P O  . ._.:.<., [.}.        ",
"        L L |.1.2.3.4.Q P ` 5.` t T Q P  .6.7.2.8.9.[.0.        ",
"        L L a.b.c.d.7.7.3.` P 5.5.>.3.e.f.g.h.i.j.k.l.m.        ",
"        L L n.o.p.o.q.L L  .` Q ` O r.L s.t.u.u.v.w.x.y.        ",
"        z.A.B.C.D.E.F.L L G.O `  .P L L H.I.J.K.L.M.N.O.        ",
"        P.Q.J.R.S.T.K.L L U. .Z O 4.L L Q V.W.X.V.Y.Z.`.        ",
"       +Z..+++@+#+$+R.%+o.&+*+O O =+-+;+>+,+'+'+)+!+~+{+]+      ",
"      ^+/+(+_+:+<+:+[+}+|+1+4.2+2+2.3+F.4+@+5+<+$+R.6+7+8+      ",
"        9+0+a+'+<+@+[+C.b+1+3.c+d+f.e+f+4+@+#+#+$+g+h+i+        ",
"          j+k+l+_+m+n+o+p.p+q+1. .j.{+r+}+V.s+W.t+u+v+          ",
"          w+> x+(+y+z+A+B+C+D+3+Q E+F+3+;+Y.G+H+I+, J+          ",
"          & K+L+M+N+p.h.b.6.O+P+P+Q+{+c.R+t.u.S+T+a U+          ",
"            V+e W+X+Y+Z+`+`+ @.@+@@@ .`+j.c.#@$@B : %@          ",
"            c &@e *@=@2.3.` T t -@P ` P  .;@>@, , , ,@          ",
"              '@)@> , !@~@{@]@^@]@]@/@(@_@:@> > <@> [@          ",
"                }@|@1@2@3@4@5@6@7@8@9@0@2@a@B b@  c@d@          ",
"                    e@f@f@g@h@i@j@k@l@0@3@m@n@                  ",
"                  o@p@q@r@s@t@u@v@w@0@x@f@y@z@                  ",
"                  A@0@0@x@x@r@B@C@f@f@D@D@D@E@                  ",
"                  F@G@0@G@x@x@D@q@0@D@D@q@x@H@                  "};
