/* XPM */
static char * sl_penita_xpm[] = {
"32 32 14 1",
" 	c #8CEF88",
".	c #404040",
"+	c #303030",
"@	c #EAEBE8",
"#	c #606060",
"$	c #000000",
"%	c #030303",
"&	c #101010",
"*	c #F235C2",
"=	c #0C0C0C",
"-	c #202020",
";	c #FFCCA7",
">	c #010101",
",	c #040404",
"                .+              ",
"            @#+$$%$+            ",
"            +$&**==&+           ",
"          +$&-***$$*&+          ",
"         +&*****+%&**&.         ",
"        +&******$$****$         ",
"        $*******$$****$         ",
"       +&******+&&+***&+        ",
"       $*******$;;$****$        ",
"      +&******+&;;&+***$        ",
"      $******+&;;;;&+**$        ",
"     +&*****+&;;;;;;&$+&        ",
"     -****+$&;;;;;;;;;&$$       ",
"     +***+>;;;;;;;;;;;;;$       ",
"     $**.&;.+;;;;;+$$.;+$       ",
"     $*+&;;;&$.;;;-;;;;$-       ",
"     $$&;;;;;;;;;;;;;;;$        ",
"     $;;;;;;#;;;;;;#;;;$        ",
"   +$$;;;;;;$;;;;;;$;;+&        ",
"  +&;$;;;;;;-;;;;;;-;;$+        ",
"  $;;$;;;;;;;;;;;;;;;;$&$       ",
"  $;;&+;;;;;;;;..;;;;+&;;#      ",
"  $;;;$;;;;;;;;;;;;;;$;;+&      ",
"  $;;;$;;;;;;;;;;;;;;$;;$       ",
"  $;;;&+;;;;;;;;;;;;+&;;$       ",
"  &+;;;$;;;.+;;+.;;;$;;;$       ",
"   &+;+,+;;;&$$&;;;+&;;+-       ",
"    &$& $;;;;..;;;+&+$$&        ",
"        &+;;;;;;+$& -           ",
"         &$+;;;+&               ",
"           &$$$&                ",
"                                "};
